<?xml version="1.0" encoding="utf-8"?>
<!-- Generator: Adobe Illustrator 23.0.3, SVG Export Plug-In . SVG Version: 6.00 Build 0)  -->
<svg version="1.1" id="Layer_1" xmlns="http://www.w3.org/2000/svg" xmlns:xlink="http://www.w3.org/1999/xlink" x="0px" y="0px"
	 viewBox="0 0 560 288" style="enable-background:new 0 0 560 288;" xml:space="preserve">
<g>
	<g>
		<path d="M32.4,75.3H11.8V98h22.9v6.8H5v-63h28.5v6.8H11.8v19.9h20.5V75.3z"/>
		<path d="M43.6,42.6c4.2-0.7,9.1-1.3,14.5-1.3c9.8,0,16.8,2.7,21.4,7.9c4.7,5.1,7.4,12.4,7.4,22.6c0,10.3-2.7,18.7-7.6,24.5
			c-4.9,5.9-13.1,9.1-23.4,9.1c-4.9,0-8.9-0.3-12.4-0.7V42.6z M50.4,98.4c1.7,0.4,4.2,0.5,6.9,0.5c14.6,0,22.5-9.7,22.5-26.7
			c0.1-14.9-7-24.3-21.4-24.3c-3.5,0-6.2,0.4-8,0.8V98.4z"/>
		<path d="M95.8,42.6c4.2-0.7,9.1-1.3,14.5-1.3c9.8,0,16.8,2.7,21.4,7.9c4.7,5.1,7.4,12.4,7.4,22.6c0,10.3-2.7,18.7-7.6,24.5
			c-4.9,5.9-13.1,9.1-23.4,9.1c-4.9,0-8.9-0.3-12.4-0.7V42.6z M102.6,98.4c1.7,0.4,4.2,0.5,6.9,0.5c14.6,0,22.5-9.7,22.5-26.7
			c0.1-14.9-7-24.3-21.4-24.3c-3.5,0-6.2,0.4-8,0.8V98.4z"/>
		<path d="M157.5,104.8V78.1l-16.7-36.3h7.8l7.4,17.4c2,4.8,3.6,8.6,5.3,13h0.2c1.5-4.1,3.3-8.2,5.3-13l7.6-17.4h7.8L164.4,78v26.8
			H157.5z"/>
		<path d="M211.6,48.7h-16.1v-6.9h39.1v6.9h-16.1v56.1h-6.9V48.7z"/>
		<path d="M247.4,41.8v63h-6.8v-63H247.4z"/>
		<path d="M259.3,41.8h6.8V98h22.6v6.8h-29.4V41.8z"/>
		<path d="M296.3,41.8h6.8V98h22.6v6.8h-29.4V41.8z"/>
		<path d="M375.4,72.7c0,21.7-11.1,33.2-24.5,33.2c-14,0-23.8-12.9-23.8-32c0-20,10.4-33.1,24.5-33.1C366,40.8,375.4,54,375.4,72.7z
			 M334.4,73.7c0,13.5,6.1,25.5,16.9,25.5c10.8,0,16.9-11.9,16.9-26.2c0-12.5-5.5-25.6-16.9-25.6C340,47.4,334.4,59.9,334.4,73.7z"
			/>
		<path d="M392.3,48.7h-16.1v-6.9h39.1v6.9h-16.1v56.1h-6.9V48.7z"/>
		<path d="M419.8,94.9c3.1,2.2,7.5,4.1,12.2,4.1c7,0,11.1-4.4,11.1-10.8c0-5.9-2.8-9.3-10-12.5c-8.6-3.6-14-9-14-17.9
			c0-9.8,6.8-17.1,17.1-17.1c5.4,0,9.3,1.5,11.7,3.1l-1.9,6.6c-1.7-1.1-5.3-3-10-3c-7.2,0-10,5.1-10,9.4c0,5.9,3.2,8.8,10.5,12.2
			c8.9,4.1,13.5,9.3,13.5,18.5c0,9.7-6,18.1-18.5,18.1c-5.1,0-10.7-1.8-13.5-4L419.8,94.9z"/>
		<path d="M504.5,72.7c0,21.7-11.1,33.2-24.5,33.2c-14,0-23.8-12.9-23.8-32c0-20,10.4-33.1,24.5-33.1
			C495.2,40.8,504.5,54,504.5,72.7z M463.5,73.7c0,13.5,6.1,25.5,16.9,25.5c10.8,0,16.9-11.9,16.9-26.2c0-12.5-5.5-25.6-16.9-25.6
			C469.2,47.4,463.5,59.9,463.5,73.7z"/>
		<path d="M513.4,104.8v-63h7.4l16.9,31.9c3.9,7.4,7,14,9.5,20.5l0.2-0.1c-0.6-8.4-0.8-16.1-0.8-25.9V41.8h6.4v63h-6.9l-16.8-32
			c-3.7-7-7.2-14.2-9.9-21l-0.2,0.1c0.4,7.9,0.5,15.5,0.5,26v26.9H513.4z"/>
	</g>
	<g>
		<path d="M328.1,111h8.4v1.7h-6.4v5.2h5.9v1.7h-5.9v7.1h-2V111z"/>
		<path d="M339.4,111.2c1-0.2,2.5-0.3,3.9-0.3c2.2,0,3.6,0.4,4.5,1.3c0.8,0.7,1.2,1.8,1.2,3c0,2.1-1.3,3.4-3,4v0.1
			c1.2,0.4,1.9,1.5,2.3,3.2c0.5,2.2,0.9,3.7,1.2,4.3h-2.1c-0.3-0.4-0.6-1.8-1-3.7c-0.5-2.2-1.3-3-3.1-3h-1.9v6.8h-2V111.2z
			 M341.5,118.3h2.1c2.2,0,3.5-1.2,3.5-3c0-2-1.5-2.9-3.6-2.9c-1,0-1.7,0.1-2,0.2V118.3z"/>
		<path d="M365.4,118.7c0,5.4-3.3,8.3-7.3,8.3c-4.1,0-7.1-3.2-7.1-8c0-5,3.1-8.2,7.3-8.2C362.7,110.7,365.4,114,365.4,118.7z
			 M353.3,118.9c0,3.4,1.8,6.4,5,6.4c3.2,0,5-3,5-6.5c0-3.1-1.6-6.4-5-6.4C354.9,112.4,353.3,115.5,353.3,118.9z"/>
		<path d="M368.1,126.7V111h2.2l5,7.9c1.2,1.8,2.1,3.5,2.8,5.1l0,0c-0.2-2.1-0.2-4-0.2-6.4V111h1.9v15.7h-2l-5-8
			c-1.1-1.7-2.1-3.5-2.9-5.2l-0.1,0c0.1,2,0.2,3.9,0.2,6.5v6.7H368.1z"/>
		<path d="M386.3,112.7h-4.8V111h11.6v1.7h-4.8v14h-2V112.7z"/>
		<path d="M398.4,119.6v1.5h-5.7v-1.5H398.4z"/>
		<path d="M409,119.3h-6.1v5.7h6.8v1.7h-8.8V111h8.5v1.7h-6.4v5h6.1V119.3z"/>
		<path d="M412.3,126.7V111h2.2l5,7.9c1.2,1.8,2.1,3.5,2.8,5.1l0,0c-0.2-2.1-0.2-4-0.2-6.4V111h1.9v15.7h-2l-5-8
			c-1.1-1.7-2.1-3.5-2.9-5.2l-0.1,0c0.1,2,0.2,3.9,0.2,6.5v6.7H412.3z"/>
		<path d="M427.7,111.2c1.2-0.2,2.7-0.3,4.3-0.3c2.9,0,5,0.7,6.4,2c1.4,1.3,2.2,3.1,2.2,5.6c0,2.6-0.8,4.7-2.3,6.1
			c-1.5,1.5-3.9,2.3-6.9,2.3c-1.4,0-2.7-0.1-3.7-0.2V111.2z M429.7,125.1c0.5,0.1,1.3,0.1,2,0.1c4.3,0,6.7-2.4,6.7-6.7
			c0-3.7-2.1-6-6.4-6c-1,0-1.8,0.1-2.4,0.2V125.1z"/>
		<path d="M449.8,126.7l-4-15.7h2.1l1.9,7.9c0.5,2,0.9,3.9,1.2,5.4h0c0.3-1.6,0.7-3.4,1.3-5.4l2.1-7.9h2.1l1.9,8
			c0.4,1.9,0.9,3.7,1.1,5.4h0c0.3-1.7,0.8-3.5,1.3-5.4l2.1-7.9h2.1l-4.4,15.7h-2.1l-2-8.2c-0.5-2-0.8-3.5-1-5.1h0
			c-0.3,1.6-0.6,3.1-1.2,5.1l-2.2,8.2H449.8z"/>
		<path d="M475.1,119.3H469v5.7h6.8v1.7h-8.8V111h8.5v1.7H469v5h6.1V119.3z"/>
		<path d="M478.4,111.2c0.9-0.2,2.3-0.3,3.7-0.3c2,0,3.3,0.3,4.3,1.1c0.8,0.6,1.3,1.5,1.3,2.8c0,1.5-1,2.8-2.7,3.4v0
			c1.5,0.4,3.2,1.6,3.2,3.9c0,1.3-0.5,2.4-1.3,3.1c-1.1,1-2.9,1.5-5.4,1.5c-1.4,0-2.5-0.1-3.1-0.2V111.2z M480.4,117.6h1.8
			c2.1,0,3.4-1.1,3.4-2.6c0-1.8-1.4-2.6-3.4-2.6c-0.9,0-1.5,0.1-1.8,0.1V117.6z M480.4,125.1c0.4,0.1,1,0.1,1.7,0.1c2.1,0,4-0.8,4-3
			c0-2.1-1.8-3-4-3h-1.7V125.1z"/>
		<path d="M495.9,126.7V111h2.2l5,7.9c1.2,1.8,2.1,3.5,2.8,5.1l0,0c-0.2-2.1-0.2-4-0.2-6.4V111h1.9v15.7h-2l-5-8
			c-1.1-1.7-2.1-3.5-2.9-5.2l-0.1,0c0.1,2,0.2,3.9,0.2,6.5v6.7H495.9z"/>
		<path d="M513.3,111v15.7h-2V111H513.3z"/>
		<path d="M516.8,126.7V111h2.2l5,7.9c1.2,1.8,2.1,3.5,2.8,5.1l0,0c-0.2-2.1-0.2-4-0.2-6.4V111h1.9v15.7h-2l-5-8
			c-1.1-1.7-2.1-3.5-2.9-5.2l-0.1,0c0.1,2,0.2,3.9,0.2,6.5v6.7H516.8z"/>
		<path d="M535.3,111h2v10.5c0,4.2-2,5.4-4.7,5.4c-0.7,0-1.7-0.2-2.2-0.4l0.3-1.7c0.4,0.2,1,0.3,1.7,0.3c1.8,0,2.9-0.8,2.9-3.9V111z
			"/>
		<path d="M543.3,121.7l-1.6,4.9h-2.1l5.3-15.7h2.4l5.4,15.7h-2.2l-1.7-4.9H543.3z M548.4,120.1l-1.5-4.5c-0.3-1-0.6-2-0.8-2.9h0
			c-0.2,0.9-0.5,1.9-0.8,2.8l-1.5,4.5H548.4z"/>
	</g>
</g>
</svg>
